<?xml version="1.0" encoding="UTF-8"?>
<!DOCTYPE svg PUBLIC "-//W3C//DTD SVG 1.1//EN" "http://www.w3.org/Graphics/SVG/1.1/DTD/svg11.dtd">
<!-- Creator: CorelDRAW 2018 (64 Bit) -->
<svg xmlns="http://www.w3.org/2000/svg" xml:space="preserve" width="318px" height="100px" version="1.1" style="shape-rendering:geometricPrecision; text-rendering:geometricPrecision; image-rendering:optimizeQuality; fill-rule:evenodd; clip-rule:evenodd"
viewBox="0 0 63.4 19.9"
 xmlns:xlink="http://www.w3.org/1999/xlink">
 <defs>
  <style type="text/css">
   <![CDATA[
    .fil1 {fill:none}
    .fil3 {fill:#BDBFC1}
    .fil7 {fill:black}
    .fil5 {fill:#007F00}
    .fil6 {fill:#155400}
    .fil2 {fill:#BDBFC1;fill-rule:nonzero}
    .fil0 {fill:#96989A;fill-rule:nonzero}
    .fil4 {fill:black;fill-rule:nonzero}
    .fil8 {fill:black;fill-rule:nonzero}
   ]]>
  </style>
 </defs>
 <g id="Layer_x0020_1">
  <metadata id="CorelCorpID_0Corel-Layer"/>
  <g id="_1885465783888">
   <path class="fil0" d="M40.8 9.7c0.2,0 0.3,0 0.5,0.1 0,0.1 0.1,0.2 0.2,0.3 0,0.1 0.1,0.2 0.1,0.3 0,0.2 -0.1,0.3 -0.2,0.4 -0.1,0.1 -0.2,0.2 -0.4,0.3 0,0 -0.1,0 -0.2,0 -0.1,0 -0.2,0 -0.4,-0.1 -0.1,0 -0.2,-0.1 -0.3,-0.2 0,-0.2 -0.1,-0.3 -0.1,-0.4 0,-0.2 0.1,-0.3 0.2,-0.4 0.1,-0.2 0.2,-0.2 0.3,-0.3 0.1,0 0.2,0 0.3,0zm-0.1 0.3c0,0 -0.1,0 -0.1,0 0,0.1 -0.1,0.1 -0.1,0.2 0,0 0.1,0.1 0.1,0.2 0,0.1 0.1,0.2 0.1,0.3 0,0 0.1,0.1 0.1,0.1 0,0 0,0 0.1,0 0,0 0.1,0 0.1,-0.1 0,0 0,0 0,-0.1 0,-0.1 0,-0.2 0,-0.3 0,-0.1 -0.1,-0.1 -0.1,-0.2 0,-0.1 -0.1,-0.1 -0.1,-0.1 0,0 -0.1,0 -0.1,0z"/>
   <path id="1" class="fil0" d="M42.2 9.7l0.5 0.5c0,0 0.1,0 0.1,0 0,0 0.1,0 0.1,-0.1 0,-0.1 -0.1,-0.1 -0.1,-0.1 0,-0.1 0,-0.1 0,-0.1 -0.1,0 -0.1,0 -0.1,-0.1 0,0 0,0 0,0 0,-0.1 0,-0.1 0.1,-0.1 0.1,0 0.1,0 0.2,0 0.1,0 0.2,0 0.2,0 0.1,0 0.1,0 0.1,0.1 0,0 0,0.1 -0.1,0.1 0,0 0,0 0,0 0,0 0,0 0,0 -0.1,0.1 -0.1,0.2 -0.1,0.3l0 0.3c0,0.1 0,0.1 0,0.2 0,0.2 0,0.2 0,0.3 0,0.1 0,0.1 -0.1,0.1 0,0 0,0 0,0 -0.1,0 -0.1,-0.1 -0.1,-0.1l-0.6 -0.5c-0.1,-0.1 -0.1,-0.1 -0.1,-0.1 -0.1,0 -0.1,0.1 -0.1,0.2 0,0.1 0,0.2 0,0.2 0,0 0.1,0 0.1,0.1 0,0 0.1,0 0.1,0 0,0.1 -0.1,0.2 -0.3,0.2 -0.1,0 -0.2,0 -0.3,0 0,-0.1 0,-0.1 0,-0.1 0,-0.1 0,-0.1 0,-0.1 0,0 0,0 0,0 0.1,-0.1 0.1,-0.1 0.1,-0.1 0,-0.1 0,-0.3 0,-0.4 0,-0.2 0,-0.3 0,-0.4 0,0 0,0 0,-0.1 0,0 -0.1,0 -0.1,0 0,0 0,0 -0.1,0 0,-0.1 0,-0.1 0,-0.1 0,-0.1 0.1,-0.1 0.2,-0.1 0,0 0.1,0 0.2,0 0,0 0.1,0 0.1,0 0,0 0.1,0 0.1,0z"/>
   <rect class="fil1" width="63.4" height="19.9"/>
   <g>
    <path class="fil2" d="M3.4 3l2.3 2c0.2,0.2 0.4,0.3 0.4,0.3 0.2,0 0.3,-0.2 0.3,-0.5 0,-0.4 0,-0.7 -0.1,-0.8 0,-0.1 -0.1,-0.2 -0.3,-0.3 -0.1,-0.1 -0.2,-0.1 -0.2,-0.2 -0.1,0 -0.1,-0.1 -0.1,-0.2 0,-0.3 0.2,-0.4 0.5,-0.5 0.2,-0.1 0.4,-0.1 0.8,-0.1 0.4,0 0.7,0.1 0.9,0.1 0.3,0.1 0.4,0.3 0.4,0.5 0,0.2 -0.1,0.3 -0.3,0.4 -0.1,0.1 -0.2,0.1 -0.2,0.1 0,0.1 -0.1,0.1 -0.1,0.2 -0.1,0.2 -0.1,0.5 -0.1,1.1l0 1.5c0,0.2 0,0.5 0,0.9 0,0.5 0,0.9 -0.1,1.1 -0.1,0.3 -0.2,0.5 -0.4,0.5 -0.1,0 -0.2,0 -0.3,-0.1 0,0 -0.2,-0.1 -0.3,-0.2l-2.7 -2.4c-0.2,-0.2 -0.3,-0.3 -0.5,-0.3 -0.1,0 -0.2,0.3 -0.2,0.8 0,0.4 0,0.7 0,0.8 0.1,0.2 0.2,0.3 0.3,0.4 0.2,0.1 0.3,0.2 0.3,0.4 0,0.4 -0.4,0.6 -1.3,0.6 -0.4,0 -0.7,-0.1 -1,-0.2 -0.2,-0.1 -0.3,-0.2 -0.3,-0.4 0,-0.1 0,-0.2 0.1,-0.3 0,0 0.1,-0.1 0.2,-0.2 0.2,-0.1 0.3,-0.2 0.3,-0.4 0,-0.4 0.1,-1 0.1,-1.7 0,-0.8 -0.1,-1.3 -0.2,-1.7 0,-0.1 0,-0.2 -0.1,-0.3 0,0 -0.1,-0.1 -0.2,-0.2 -0.2,0 -0.3,-0.1 -0.3,-0.2 -0.1,0 -0.1,-0.1 -0.1,-0.2 0,-0.3 0.2,-0.5 0.7,-0.5 0.2,-0.1 0.5,-0.1 0.9,-0.1 0.3,0 0.4,0.1 0.6,0.1 0.1,0 0.2,0.1 0.3,0.2z"/>
    <path id="1" class="fil2" d="M11.1 4.5c0.5,0 0.9,0.1 1.3,0.4 0.2,0.1 0.3,0.3 0.4,0.5 0.1,0.2 0.1,0.4 0.1,0.7l0 0.7c0,0.5 0,0.8 0.1,0.9 0,0.1 0.1,0.1 0.1,0.1 0,0 0.1,0.1 0.2,0.1 0.1,0 0.1,0.1 0.1,0.2 0,0.1 0,0.3 -0.1,0.4 -0.2,0.2 -0.3,0.3 -0.5,0.4 -0.2,0.1 -0.5,0.2 -0.7,0.2 -0.3,0 -0.6,-0.1 -0.7,-0.3 -0.1,-0.1 -0.2,-0.1 -0.2,-0.1 -0.1,0 -0.2,0 -0.3,0.1 -0.3,0.2 -0.6,0.3 -1,0.3 -0.4,0 -0.7,-0.1 -0.9,-0.2 -0.2,-0.2 -0.3,-0.3 -0.4,-0.5 -0.1,-0.2 -0.2,-0.3 -0.2,-0.5 0,-0.4 0.2,-0.6 0.4,-0.9 0.4,-0.3 1,-0.5 1.8,-0.5 0.2,0 0.3,-0.1 0.3,-0.1 0.1,0 0.1,-0.1 0.1,-0.2 0,-0.4 -0.1,-0.6 -0.1,-0.7 -0.1,-0.2 -0.2,-0.2 -0.3,-0.2 -0.1,0 -0.2,0 -0.3,0 -0.1,0.1 -0.1,0.2 -0.3,0.3 -0.2,0.4 -0.5,0.6 -0.8,0.6 -0.1,0 -0.3,0 -0.4,-0.1 0,-0.1 -0.1,-0.2 -0.1,-0.4 0,-0.1 0.1,-0.3 0.2,-0.4 0.1,-0.1 0.3,-0.3 0.5,-0.4 0.5,-0.3 1.1,-0.4 1.7,-0.4zm-0.3 2.6c-0.2,0 -0.3,0.1 -0.4,0.2 -0.1,0.1 -0.1,0.2 -0.1,0.4 0,0.1 0,0.2 0.1,0.3 0,0.1 0.1,0.1 0.2,0.1 0.3,0 0.4,-0.2 0.4,-0.6 0,-0.1 0,-0.2 0,-0.3 -0.1,-0.1 -0.1,-0.1 -0.2,-0.1z"/>
    <path id="2" class="fil2" d="M18.5 4.3c0.1,0 0.2,0 0.2,0.1 0.1,0.1 0.1,0.2 0.1,0.3 0,0.1 0,0.2 -0.1,0.4 -0.1,0.2 -0.2,0.3 -0.3,0.4 -0.1,0 -0.1,0.1 -0.1,0.1 0,0 0,0.1 0,0.1 0,0.1 0,0.1 0,0.2 0,0.4 -0.1,0.7 -0.3,0.9 -0.2,0.2 -0.5,0.4 -0.9,0.5 -0.3,0.1 -0.7,0.2 -1.1,0.2 -0.1,0 -0.2,0 -0.3,0 -0.1,0 -0.1,0 -0.2,0 -0.1,0 -0.2,0 -0.2,0.2 0,0.1 0,0.2 0.2,0.2 0.1,0.1 0.2,0.1 0.4,0.1 0.1,0 0.3,0 0.5,0 0.5,-0.1 0.9,-0.1 1.1,-0.1 0.4,0 0.6,0 0.8,0.1 0.2,0.1 0.3,0.3 0.4,0.4 0.1,0.2 0.1,0.4 0.1,0.6 0,0.3 -0.1,0.5 -0.3,0.8 -0.3,0.4 -0.7,0.6 -1.2,0.8 -0.4,0.1 -0.8,0.2 -1.4,0.2 -0.6,0 -1.2,-0.1 -1.6,-0.3 -0.2,-0.1 -0.3,-0.3 -0.5,-0.4 -0.1,-0.2 -0.1,-0.3 -0.1,-0.5 0,-0.1 0,-0.2 0.1,-0.3 0,-0.1 0.1,-0.2 0.2,-0.2 0.1,-0.1 0.2,-0.1 0.2,-0.2 0,0 -0.1,0 -0.2,-0.1 -0.2,-0.2 -0.3,-0.4 -0.3,-0.6 0,-0.2 0,-0.3 0.2,-0.5 0.1,-0.1 0.2,-0.2 0.4,-0.3 0.1,-0.1 0.1,-0.1 0.1,-0.1 0,-0.1 -0.1,-0.1 -0.1,-0.2 -0.4,-0.3 -0.5,-0.6 -0.5,-1 0,-0.2 0,-0.4 0.2,-0.6 0.1,-0.2 0.2,-0.3 0.4,-0.5 0.5,-0.3 1,-0.5 1.6,-0.5 0.3,0 0.5,0.1 0.8,0.1 0.3,0.1 0.5,0.1 0.6,0.1 0.3,0 0.6,-0.1 1,-0.4 0,0 0.1,0 0.1,0zm-2.4 0.9c-0.2,0 -0.3,0 -0.4,0.2 -0.1,0.1 -0.1,0.2 -0.1,0.4 0,0.3 0,0.6 0.1,0.8 0.1,0.2 0.3,0.3 0.4,0.3 0.2,0 0.3,-0.1 0.4,-0.2 0.1,-0.1 0.1,-0.3 0.1,-0.5 0,-0.3 0,-0.6 -0.1,-0.7 -0.1,-0.2 -0.3,-0.3 -0.4,-0.3zm-1 4.1c-0.1,0 -0.1,0 -0.1,0.1 0,0.2 0.1,0.3 0.3,0.5 0.2,0.1 0.4,0.1 0.7,0.1 0.3,0 0.5,0 0.7,-0.1 0.2,-0.1 0.3,-0.2 0.3,-0.3 0,-0.1 -0.1,-0.2 -0.1,-0.2 -0.1,-0.1 -0.2,-0.1 -0.3,-0.1 0,0 -0.1,0 -0.2,0 -0.1,0 -0.3,0.1 -0.5,0.1 -0.2,0 -0.3,0 -0.5,-0.1 -0.1,0 -0.2,0 -0.2,0 -0.1,0 -0.1,0 -0.1,0z"/>
    <path id="3" class="fil2" d="M23.5 7.1l-0.5 1.2c-0.1,0.2 -0.2,0.4 -0.2,0.4 -0.1,0.1 -0.1,0.2 -0.2,0.2 -0.1,0 -0.1,-0.1 -0.2,-0.1 0,-0.1 -0.1,-0.2 -0.2,-0.4 -0.1,-0.3 -0.2,-0.5 -0.3,-0.6l-0.6 -1.4c-0.1,-0.2 -0.2,-0.3 -0.3,-0.3 -0.1,0 -0.1,0.1 -0.1,0.3 0,0.3 -0.1,0.7 -0.1,1 0,0.3 0.1,0.5 0.1,0.6 0,0.1 0,0.1 0.1,0.1 0,0.1 0.1,0.1 0.3,0.2 0.1,0.1 0.1,0.1 0.1,0.3 0,0.3 -0.4,0.5 -1.3,0.5 -0.7,0 -1.1,-0.2 -1.1,-0.5 0,-0.1 0,-0.2 0.1,-0.2 0,0 0.1,-0.1 0.3,-0.2 0.1,0 0.1,-0.1 0.2,-0.1 0,-0.1 0,-0.3 0.1,-0.5 0,-0.2 0,-0.6 0,-1.2 0.1,-0.5 0.1,-1 0.1,-1.4 0,-0.5 -0.1,-0.8 -0.1,-1 -0.1,-0.1 -0.1,-0.1 -0.1,-0.1 -0.1,-0.1 -0.1,-0.1 -0.2,-0.2 -0.2,-0.1 -0.4,-0.2 -0.4,-0.3 0,-0.2 0.1,-0.3 0.2,-0.3 0,-0.1 0.2,-0.2 0.3,-0.2 0.1,-0.1 0.3,-0.1 0.5,-0.1 0.2,-0.1 0.4,-0.1 0.6,-0.1 0.4,0 0.6,0.1 0.8,0.1 0.1,0.1 0.1,0.1 0.2,0.1 0,0.1 0.1,0.2 0.2,0.4l0.9 1.7c0.1,0.2 0.2,0.3 0.2,0.3 0.1,0.1 0.1,0.1 0.2,0.1 0,0 0.1,0 0.1,-0.1 0.1,0 0.2,-0.1 0.2,-0.2l0.7 -1.3c0,-0.1 0.1,-0.2 0.1,-0.3 0.2,-0.3 0.3,-0.5 0.4,-0.6 0.2,-0.1 0.6,-0.2 1,-0.2 0.9,0 1.3,0.2 1.3,0.6 0,0.1 0,0.2 0,0.2 -0.1,0.1 -0.1,0.1 -0.2,0.2 -0.2,0.1 -0.3,0.3 -0.3,0.5 -0.1,0.4 -0.1,0.9 -0.1,1.5 0,0.8 0,1.4 0.1,2 0,0.2 0.1,0.3 0.1,0.3 0,0.1 0.1,0.1 0.3,0.2 0.1,0.1 0.1,0.2 0.1,0.3 0,0.2 -0.1,0.4 -0.4,0.5 -0.1,0 -0.3,0 -0.4,0.1 -0.2,0 -0.4,0 -0.8,0 -0.5,0 -0.9,-0.1 -1.1,-0.1 -0.3,-0.1 -0.4,-0.2 -0.4,-0.4 0,-0.1 0,-0.2 0,-0.2 0.1,-0.1 0.2,-0.1 0.3,-0.3 0.1,0 0.1,-0.2 0.2,-0.3 0,-0.2 0,-0.5 0,-1 0,-0.2 0,-0.4 0,-0.4 0,-0.1 -0.1,-0.1 -0.2,-0.1 0,0 -0.1,0 -0.2,0.1 -0.1,0.1 -0.2,0.4 -0.4,0.7z"/>
    <path id="4" class="fil2" d="M29.8 4.5c0.5,0 1,0.1 1.4,0.4 0.1,0.1 0.3,0.3 0.4,0.5 0,0.2 0.1,0.4 0.1,0.7l0 0.7c0,0.5 0,0.8 0.1,0.9 0,0.1 0,0.1 0.1,0.1 0,0 0,0.1 0.1,0.1 0.1,0 0.2,0.1 0.2,0.2 0,0.1 -0.1,0.3 -0.2,0.4 -0.1,0.2 -0.2,0.3 -0.4,0.4 -0.3,0.1 -0.5,0.2 -0.7,0.2 -0.4,0 -0.6,-0.1 -0.8,-0.3 -0.1,-0.1 -0.1,-0.1 -0.2,-0.1 0,0 -0.1,0 -0.2,0.1 -0.3,0.2 -0.6,0.3 -1,0.3 -0.4,0 -0.7,-0.1 -1,-0.2 -0.1,-0.2 -0.3,-0.3 -0.4,-0.5 -0.1,-0.2 -0.1,-0.3 -0.1,-0.5 0,-0.4 0.1,-0.6 0.4,-0.9 0.4,-0.3 1,-0.5 1.7,-0.5 0.2,0 0.3,-0.1 0.4,-0.1 0,0 0,-0.1 0,-0.2 0,-0.4 0,-0.6 -0.1,-0.7 0,-0.2 -0.1,-0.2 -0.3,-0.2 -0.1,0 -0.2,0 -0.2,0 -0.1,0.1 -0.2,0.2 -0.3,0.3 -0.3,0.4 -0.5,0.6 -0.8,0.6 -0.2,0 -0.3,0 -0.4,-0.1 -0.1,-0.1 -0.1,-0.2 -0.1,-0.4 0,-0.1 0,-0.3 0.1,-0.4 0.2,-0.1 0.3,-0.3 0.5,-0.4 0.6,-0.3 1.1,-0.4 1.7,-0.4zm-0.3 2.6c-0.1,0 -0.2,0.1 -0.3,0.2 -0.1,0.1 -0.2,0.2 -0.2,0.4 0,0.1 0.1,0.2 0.1,0.3 0.1,0.1 0.2,0.1 0.3,0.1 0.2,0 0.4,-0.2 0.4,-0.6 0,-0.1 -0.1,-0.2 -0.1,-0.3 0,-0.1 -0.1,-0.1 -0.2,-0.1z"/>
    <path id="5" class="fil2" d="M34.7 4.5c0.2,0 0.3,0 0.3,0.1 0.1,0 0.1,0.1 0.1,0.2 0,0.1 0,0.2 0.1,0.2 0,0 0.1,-0.1 0.3,-0.2 0.1,-0.1 0.3,-0.2 0.5,-0.2 0.2,-0.1 0.4,-0.1 0.6,-0.1 0.3,0 0.7,0.1 1,0.4 0.2,0.2 0.4,0.4 0.5,0.7 0.1,0.4 0.2,0.7 0.2,1.1 0,0.7 -0.2,1.3 -0.8,1.8 -0.3,0.4 -0.8,0.6 -1.3,0.6 -0.3,0 -0.5,0 -0.8,-0.2 0,0 -0.1,0 -0.1,0 -0.1,0 -0.2,0.1 -0.2,0.3 0,0.2 0.1,0.4 0.3,0.5 0.1,0.1 0.2,0.1 0.2,0.2 0.1,0 0.1,0.1 0.1,0.2 0,0.1 -0.1,0.3 -0.3,0.4 -0.2,0.1 -0.5,0.1 -0.9,0.1 -0.6,0 -1.2,-0.1 -1.7,-0.4 -0.2,-0.1 -0.4,-0.3 -0.4,-0.5 0,-0.1 0.1,-0.1 0.1,-0.2 0,0 0.1,-0.1 0.2,-0.1 0.2,-0.1 0.3,-0.2 0.3,-0.4 0,-0.2 0.1,-0.7 0.1,-1.6 0,-0.8 -0.1,-1.2 -0.1,-1.3 0,0 0,0 0,0 -0.1,-0.1 -0.1,-0.1 -0.3,-0.1 -0.1,0 -0.1,-0.1 -0.2,-0.1 -0.1,-0.1 -0.1,-0.2 -0.1,-0.3 0,-0.1 0,-0.2 0.1,-0.3 0.1,-0.1 0.2,-0.2 0.4,-0.3 0.8,-0.3 1.4,-0.5 1.8,-0.5zm0.4 1.7l0 1.3c0,0 0,0.1 0,0.1 0,0.1 0,0.2 0.1,0.2 0.1,0.1 0.2,0.1 0.3,0.1 0.4,0 0.6,-0.3 0.6,-1 0,-0.4 0,-0.8 -0.2,-0.9 -0.1,-0.1 -0.3,-0.2 -0.4,-0.2 -0.2,0 -0.3,0.1 -0.4,0.4z"/>
    <path class="fil2" d="M3.6 14.4c-0.1,0 -0.2,0.1 -0.2,0.1 -0.1,0.1 -0.1,0.2 -0.1,0.4 0,0.3 0.1,0.6 0.1,0.7 0,0.1 0,0.1 0,0.2 0.1,0 0.1,0 0.2,0.1 0.1,0 0.2,0.2 0.2,0.3 0,0.1 -0.1,0.3 -0.3,0.3 -0.2,0.1 -0.6,0.1 -1,0.1 -1,0 -1.4,-0.1 -1.4,-0.5 0,0 0,-0.1 0,-0.1 0,-0.1 0.1,-0.1 0.2,-0.2 0.1,-0.1 0.2,-0.1 0.2,-0.2 0.1,-0.1 0.1,-0.3 0.1,-0.5 0,-0.2 0,-0.9 0,-1.9 0,-0.4 0,-0.6 0,-0.7 -0.1,-0.2 -0.1,-0.3 -0.3,-0.3 -0.1,-0.1 -0.1,-0.1 -0.2,-0.2 0,0 0,-0.1 0,-0.1 0,-0.1 0,-0.2 0.1,-0.3 0,0 0.1,-0.1 0.3,-0.1 0.1,0 0.2,-0.1 0.4,-0.1 0.1,0 0.3,0.1 0.6,0.1 0.1,0 0.2,0 0.3,0 0.2,0 0.5,0 0.9,-0.1 0.3,0 0.4,0 0.5,0 0.5,0 1,0.1 1.3,0.4 0.3,0.2 0.5,0.6 0.5,1 0,0.2 -0.1,0.4 -0.2,0.6 -0.1,0.2 -0.2,0.3 -0.4,0.4 -0.1,0 -0.1,0.1 -0.1,0.1 0,0.1 0,0.2 0.1,0.2 0.3,0.1 0.5,0.3 0.6,0.5 0.1,0.1 0.2,0.4 0.3,0.8 0,0.2 0,0.3 0.1,0.3 0,0.1 0.1,0.1 0.3,0.2 0,0 0.1,0 0.1,0.1 0,0 0,0.1 0,0.1 0,0.1 0,0.2 -0.1,0.3 0,0.1 -0.1,0.1 -0.2,0.2 -0.2,0.1 -0.5,0.1 -0.8,0.1 -0.5,0 -0.9,-0.1 -1.1,-0.4 -0.1,-0.1 -0.2,-0.2 -0.2,-0.4 -0.1,-0.2 -0.2,-0.5 -0.3,-0.8 0,-0.3 -0.1,-0.4 -0.2,-0.5 -0.1,-0.1 -0.2,-0.2 -0.3,-0.2zm-0.3 -1.9l0 0.9c0,0 0,0 0,0 0,0.1 0,0.2 0,0.2 0.1,0 0.1,0 0.2,0 0.2,0 0.4,0 0.5,-0.1 0.1,-0.1 0.1,-0.3 0.1,-0.6 0,-0.4 -0.1,-0.7 -0.5,-0.7 -0.1,0 -0.2,0 -0.2,0.1 0,0 -0.1,0.1 -0.1,0.2z"/>
    <path id="1" class="fil2" d="M8.5 11.5l1.9 0c0.4,0 0.7,0 0.8,0 0.2,-0.1 0.4,-0.1 0.6,-0.1 0,-0.1 0,-0.1 0.1,-0.1 0.1,0 0.2,0.1 0.3,0.2 0.2,0.3 0.3,0.5 0.3,0.9 0,0.1 -0.1,0.3 -0.1,0.3 -0.1,0.1 -0.2,0.2 -0.3,0.2 -0.1,0 -0.2,0 -0.2,-0.1 -0.1,0 -0.1,-0.1 -0.2,-0.2 -0.1,-0.2 -0.2,-0.3 -0.4,-0.3 -0.2,-0.1 -0.5,-0.1 -0.8,-0.1 -0.3,0 -0.5,0 -0.6,0.1 0,0.1 0,0.2 0,0.3 0,0.1 0,0.3 0,0.7 0,0.1 0,0.2 0.1,0.2 0,0.1 0.1,0.1 0.3,0.1 0.1,0 0.2,0 0.3,-0.1 0,0 0,-0.1 0.1,-0.2 0,-0.1 0,-0.2 0,-0.3 0,0 0.1,-0.1 0.1,-0.1 0.1,-0.1 0.1,-0.1 0.2,-0.1 0.1,0 0.2,0 0.3,0.1 0,0.1 0.1,0.2 0.1,0.4 0,0.2 0,0.4 0,0.6 0,0.4 0,0.7 -0.1,1 -0.1,0.1 -0.2,0.2 -0.3,0.2 -0.1,0 -0.2,-0.1 -0.2,-0.1 -0.1,0 -0.1,-0.1 -0.1,-0.3 0,-0.3 -0.2,-0.4 -0.5,-0.4 -0.1,0 -0.2,0 -0.2,0.1 -0.1,0.1 -0.1,0.2 -0.1,0.4 0,0.1 0,0.3 0,0.5 0.1,0.1 0.1,0.3 0.1,0.3 0,0.1 0.1,0.2 0.2,0.2 0.1,0 0.3,0 0.5,0 0.4,0 0.7,0 0.8,-0.1 0.2,-0.1 0.4,-0.3 0.5,-0.5 0.1,-0.2 0.1,-0.3 0.2,-0.3 0,-0.1 0.1,-0.1 0.2,-0.1 0.1,0 0.2,0 0.3,0.1 0,0.1 0.1,0.2 0.1,0.4 0,0.1 -0.1,0.3 -0.1,0.5 -0.1,0.3 -0.2,0.5 -0.3,0.6 -0.1,0.1 -0.1,0.2 -0.2,0.2 0,0 -0.1,0 -0.1,0 -0.1,0 -0.1,0 -0.2,0 -0.2,0 -0.4,0 -0.7,0l-3.1 0c-0.1,0 -0.2,-0.1 -0.3,-0.1 -0.1,-0.1 -0.1,-0.2 -0.1,-0.3 0,0 0,-0.1 0,-0.1 0.1,0 0.1,-0.1 0.2,-0.1 0.1,-0.1 0.2,-0.1 0.2,-0.2 0,0 0.1,-0.1 0.1,-0.2 0.1,-0.3 0.1,-0.8 0.1,-1.5 0,-0.9 0,-1.5 -0.2,-1.8 0,0 0,-0.1 0,-0.1 -0.1,0 -0.1,0 -0.2,-0.1 -0.2,0 -0.2,-0.1 -0.2,-0.3 0,0 0,-0.1 0,-0.2 0.1,0 0.1,-0.1 0.2,-0.1 0.1,0 0.3,0 0.6,0z"/>
    <path id="2" class="fil2" d="M15.7 16.6l-0.5 0c-0.4,0 -0.6,0 -0.8,0 -0.2,0 -0.3,0 -0.3,0 -0.2,0 -0.3,0 -0.4,-0.1 -0.1,-0.1 -0.1,-0.2 -0.1,-0.3 0,-0.1 0,-0.1 0,-0.2 0.1,0 0.1,-0.1 0.3,-0.1 0,-0.1 0.1,-0.2 0.1,-0.3 0,-0.1 0.1,-0.3 0.1,-0.7 0.1,-0.5 0.1,-1.2 0.1,-2 0,-0.2 0,-0.4 -0.1,-0.5 0,-0.1 -0.1,-0.2 -0.2,-0.3 -0.2,0 -0.3,-0.1 -0.3,-0.3 0,-0.1 0.1,-0.2 0.2,-0.2 0.1,-0.1 0.2,-0.1 0.3,-0.1 0.1,0 0.2,0 0.4,0 0.2,0 0.4,0 0.7,0 0.1,0 0.5,0 1.1,0 0.1,0 0.3,0 0.4,0 0.4,0 0.6,0 0.8,0 0.2,0.1 0.4,0.2 0.6,0.3 0.2,0.2 0.3,0.5 0.3,0.8 0,0.2 0,0.4 -0.1,0.5 -0.1,0.2 -0.2,0.3 -0.3,0.4 -0.1,0.1 -0.1,0.2 -0.1,0.2 0,0.1 0,0.1 0.1,0.2 0.2,0 0.4,0.2 0.6,0.4 0.2,0.2 0.3,0.4 0.3,0.7 0,0.4 -0.2,0.7 -0.4,1 -0.4,0.4 -0.9,0.6 -1.6,0.6 -0.1,0 -0.3,0 -0.6,0 -0.4,0 -0.6,0 -0.6,0zm0.2 -4.1l0 0.8c0,0.1 0,0.2 0.1,0.2 0,0.1 0,0.1 0.1,0.1 0.2,0 0.3,0 0.4,-0.2 0.1,-0.1 0.2,-0.2 0.2,-0.5 0,-0.2 -0.1,-0.4 -0.2,-0.5 -0.1,-0.2 -0.2,-0.2 -0.4,-0.2 0,0 -0.1,0 -0.1,0.1 -0.1,0 -0.1,0.1 -0.1,0.2zm0 2.2l0 0.3c0,0.3 0,0.6 0.1,0.7 0,0.1 0.1,0.1 0.3,0.1 0.3,0 0.5,-0.2 0.5,-0.6 0,-0.6 -0.2,-0.9 -0.6,-0.9 -0.1,0 -0.2,0.1 -0.2,0.1 -0.1,0.1 -0.1,0.1 -0.1,0.3z"/>
    <path id="3" class="fil2" d="M27.9 14.4c-0.1,0 -0.1,0.1 -0.2,0.1 0,0.1 0,0.2 0,0.4 0,0.3 0,0.6 0.1,0.7 0,0.1 0,0.1 0,0.2 0,0 0.1,0 0.2,0.1 0.1,0 0.2,0.2 0.2,0.3 0,0.1 -0.1,0.3 -0.3,0.3 -0.2,0.1 -0.6,0.1 -1.1,0.1 -0.9,0 -1.4,-0.1 -1.4,-0.5 0,0 0.1,-0.1 0.1,-0.1 0,-0.1 0.1,-0.1 0.2,-0.2 0.1,-0.1 0.2,-0.1 0.2,-0.2 0,-0.1 0.1,-0.3 0.1,-0.5 0,-0.2 0,-0.9 0,-1.9 0,-0.4 0,-0.6 -0.1,-0.7 0,-0.2 -0.1,-0.3 -0.2,-0.3 -0.1,-0.1 -0.2,-0.1 -0.2,-0.2 0,0 -0.1,-0.1 -0.1,-0.1 0,-0.1 0.1,-0.2 0.1,-0.3 0.1,0 0.2,-0.1 0.3,-0.1 0.1,0 0.3,-0.1 0.5,-0.1 0.1,0 0.3,0.1 0.6,0.1 0.1,0 0.2,0 0.3,0 0.2,0 0.5,0 0.9,-0.1 0.2,0 0.4,0 0.5,0 0.5,0 0.9,0.1 1.3,0.4 0.3,0.2 0.5,0.6 0.5,1 0,0.2 -0.1,0.4 -0.2,0.6 -0.1,0.2 -0.3,0.3 -0.5,0.4 0,0 -0.1,0.1 -0.1,0.1 0,0.1 0.1,0.2 0.2,0.2 0.3,0.1 0.5,0.3 0.6,0.5 0.1,0.1 0.2,0.4 0.2,0.8 0.1,0.2 0.1,0.3 0.1,0.3 0.1,0.1 0.2,0.1 0.3,0.2 0.1,0 0.1,0 0.2,0.1 0,0 0,0.1 0,0.1 0,0.1 0,0.2 -0.1,0.3 0,0.1 -0.1,0.1 -0.2,0.2 -0.2,0.1 -0.5,0.1 -0.9,0.1 -0.5,0 -0.8,-0.1 -1,-0.4 -0.1,-0.1 -0.2,-0.2 -0.2,-0.4 -0.1,-0.2 -0.2,-0.5 -0.3,-0.8 0,-0.3 -0.1,-0.4 -0.2,-0.5 -0.1,-0.1 -0.2,-0.2 -0.4,-0.2zm-0.2 -1.9l0 0.9c0,0 0,0 0,0 0,0.1 0,0.2 0,0.2 0,0 0.1,0 0.2,0 0.2,0 0.3,0 0.4,-0.1 0.1,-0.1 0.2,-0.3 0.2,-0.6 0,-0.4 -0.2,-0.7 -0.5,-0.7 -0.1,0 -0.2,0 -0.2,0.1 -0.1,0 -0.1,0.1 -0.1,0.2z"/>
    <path id="4" class="fil2" d="M34.1 11.7l1.9 1.6c0.1,0.1 0.3,0.2 0.3,0.2 0.2,0 0.2,-0.1 0.2,-0.4 0,-0.3 0,-0.5 0,-0.6 -0.1,-0.2 -0.1,-0.2 -0.2,-0.3 -0.1,0 -0.2,-0.1 -0.3,-0.2 0,0 0,-0.1 0,-0.2 0,-0.2 0.1,-0.3 0.4,-0.4 0.1,0 0.3,0 0.6,0 0.4,0 0.7,0 0.8,0.1 0.2,0 0.3,0.2 0.3,0.4 0,0.1 0,0.2 -0.2,0.3 -0.1,0.1 -0.2,0.1 -0.2,0.1 0,0 0,0.1 -0.1,0.1 0,0.2 -0.1,0.5 -0.1,1l0 1.2c0,0.2 0,0.4 0,0.7 0,0.5 0,0.8 0,1 -0.1,0.2 -0.2,0.3 -0.4,0.3 -0.1,0 -0.1,0 -0.2,0 -0.1,0 -0.1,-0.1 -0.3,-0.2l-2.2 -2c-0.1,-0.1 -0.3,-0.2 -0.4,-0.2 -0.1,0 -0.2,0.2 -0.2,0.6 0,0.4 0,0.6 0.1,0.7 0,0.1 0.1,0.2 0.2,0.3 0.2,0.1 0.2,0.2 0.2,0.3 0,0.4 -0.3,0.5 -1.1,0.5 -0.3,0 -0.6,0 -0.7,-0.1 -0.2,-0.1 -0.3,-0.2 -0.3,-0.4 0,-0.1 0,-0.1 0,-0.2 0.1,0 0.1,-0.1 0.3,-0.1 0.1,-0.1 0.2,-0.2 0.2,-0.4 0,-0.3 0,-0.8 0,-1.4 0,-0.6 0,-1.1 -0.1,-1.4 0,-0.1 0,-0.2 -0.1,-0.2 0,-0.1 -0.1,-0.1 -0.2,-0.2 -0.1,0 -0.2,-0.1 -0.2,-0.1 -0.1,-0.1 -0.1,-0.1 -0.1,-0.2 0,-0.3 0.2,-0.4 0.6,-0.5 0.2,0 0.4,0 0.8,0 0.2,0 0.3,0 0.4,0 0.1,0.1 0.2,0.2 0.3,0.3z"/>
    <path id="svg_2" class="fil3" d="M22.3 17.6c-0.2,-0.9 -0.5,-1.7 -0.9,-2.4 -0.3,-0.5 -0.6,-1 -1,-1.5 -0.1,-0.2 -0.2,-0.3 -0.3,-0.5 -0.2,-0.4 -0.3,-0.8 -0.3,-1.3 0,-0.5 0.2,-0.9 0.4,-1.3 0.3,-0.5 0.9,-1 1.7,-1.1 0.6,-0.1 1.3,0.1 1.7,0.3 0.3,0.2 0.6,0.5 0.8,0.8 0.2,0.4 0.4,0.8 0.4,1.3 0,0.3 0,0.5 -0.1,0.7 -0.1,0.2 -0.2,0.4 -0.3,0.6 -0.1,0.3 -0.4,0.7 -0.6,1 -0.6,1 -1.2,2 -1.5,3.4l0 0z"/>
    <circle id="svg_4" class="fil3" cx="22.3" cy="11.9" r="0.9"/>
    <path class="fil4" d="M3.1 2.7l2.3 2c0.2,0.1 0.3,0.2 0.4,0.2 0.2,0 0.3,-0.1 0.3,-0.5 0,-0.4 -0.1,-0.6 -0.1,-0.7 0,-0.2 -0.1,-0.3 -0.3,-0.4 -0.1,0 -0.2,-0.1 -0.2,-0.1 -0.1,-0.1 -0.1,-0.2 -0.1,-0.3 0,-0.2 0.2,-0.4 0.5,-0.5 0.2,0 0.4,0 0.8,0 0.4,0 0.7,0 0.9,0.1 0.3,0 0.4,0.2 0.4,0.4 0,0.2 -0.1,0.4 -0.3,0.5 -0.1,0 -0.2,0 -0.2,0.1 0,0 -0.1,0.1 -0.1,0.1 -0.1,0.2 -0.1,0.6 -0.1,1.1l0 1.5c0,0.2 0,0.5 0,0.9 0,0.6 0,1 -0.1,1.2 -0.1,0.3 -0.2,0.4 -0.5,0.4 0,0 -0.1,0 -0.2,0 -0.1,-0.1 -0.2,-0.2 -0.3,-0.3l-2.7 -2.4c-0.2,-0.2 -0.4,-0.3 -0.5,-0.3 -0.2,0 -0.3,0.3 -0.3,0.8 0,0.4 0.1,0.7 0.1,0.9 0.1,0.1 0.2,0.2 0.3,0.3 0.2,0.1 0.3,0.2 0.3,0.4 0,0.4 -0.4,0.6 -1.3,0.6 -0.4,0 -0.8,0 -1,-0.1 -0.2,-0.1 -0.3,-0.3 -0.3,-0.5 0,-0.1 0,-0.2 0,-0.2 0.1,-0.1 0.2,-0.1 0.3,-0.2 0.2,-0.1 0.2,-0.3 0.3,-0.5 0,-0.4 0.1,-0.9 0.1,-1.7 0,-0.7 -0.1,-1.3 -0.2,-1.7 0,-0.1 -0.1,-0.2 -0.1,-0.2 -0.1,-0.1 -0.1,-0.2 -0.3,-0.2 -0.1,-0.1 -0.2,-0.2 -0.2,-0.2 -0.1,-0.1 -0.1,-0.2 -0.1,-0.2 0,-0.3 0.2,-0.5 0.7,-0.6 0.2,0 0.5,0 0.9,0 0.3,0 0.4,0 0.5,0 0.1,0.1 0.3,0.2 0.4,0.3z"/>
    <path id="1" class="fil4" d="M10.7 4.1c0.6,0 1,0.2 1.4,0.4 0.2,0.2 0.3,0.3 0.4,0.5 0.1,0.2 0.1,0.4 0.1,0.8l0 0.6c0,0.5 0,0.8 0.1,0.9 0,0.1 0,0.2 0.1,0.2 0,0 0.1,0 0.2,0 0.1,0 0.1,0.1 0.1,0.2 0,0.2 0,0.3 -0.2,0.5 -0.1,0.1 -0.2,0.2 -0.4,0.4 -0.2,0.1 -0.5,0.2 -0.7,0.2 -0.3,0 -0.6,-0.2 -0.8,-0.4 0,-0.1 -0.1,-0.1 -0.1,-0.1 -0.1,0 -0.2,0 -0.3,0.1 -0.3,0.2 -0.6,0.4 -1,0.4 -0.4,0 -0.7,-0.1 -1,-0.3 -0.1,-0.1 -0.3,-0.3 -0.3,-0.4 -0.1,-0.2 -0.2,-0.4 -0.2,-0.6 0,-0.3 0.1,-0.6 0.4,-0.8 0.4,-0.4 1,-0.6 1.8,-0.6 0.1,0 0.2,0 0.3,-0.1 0,0 0.1,-0.1 0.1,-0.2 0,-0.3 -0.1,-0.5 -0.1,-0.7 -0.1,-0.1 -0.2,-0.2 -0.4,-0.2 -0.1,0 -0.1,0 -0.2,0.1 -0.1,0 -0.2,0.1 -0.3,0.3 -0.2,0.4 -0.5,0.5 -0.8,0.5 -0.2,0 -0.3,0 -0.4,-0.1 -0.1,-0.1 -0.1,-0.2 -0.1,-0.3 0,-0.2 0,-0.3 0.2,-0.5 0.1,-0.1 0.2,-0.2 0.4,-0.3 0.6,-0.3 1.1,-0.5 1.7,-0.5zm-0.3 2.6c-0.1,0 -0.2,0.1 -0.3,0.2 -0.1,0.1 -0.2,0.2 -0.2,0.4 0,0.1 0.1,0.3 0.2,0.3 0,0.1 0.1,0.2 0.2,0.2 0.3,0 0.4,-0.2 0.4,-0.6 0,-0.2 0,-0.3 -0.1,-0.4 0,0 -0.1,-0.1 -0.2,-0.1z"/>
    <path id="2" class="fil4" d="M18.2 3.9c0.1,0 0.1,0 0.2,0.1 0.1,0.1 0.1,0.2 0.1,0.3 0,0.1 0,0.3 -0.1,0.4 -0.1,0.2 -0.2,0.3 -0.3,0.4 -0.1,0.1 -0.1,0.1 -0.1,0.2 0,0 0,0 0,0.1 0,0 0,0.1 0,0.1 0,0.4 -0.1,0.7 -0.3,0.9 -0.3,0.3 -0.5,0.4 -0.9,0.5 -0.3,0.2 -0.7,0.2 -1.1,0.2 -0.1,0 -0.2,0 -0.3,0 -0.1,0 -0.1,0 -0.2,0 -0.1,0 -0.2,0.1 -0.2,0.2 0,0.1 0,0.2 0.1,0.3 0.1,0 0.3,0.1 0.5,0.1 0.1,0 0.3,-0.1 0.5,-0.1 0.5,-0.1 0.8,-0.1 1.1,-0.1 0.3,0 0.6,0.1 0.8,0.2 0.2,0.1 0.3,0.2 0.4,0.4 0.1,0.1 0.1,0.3 0.1,0.5 0,0.3 -0.1,0.6 -0.3,0.9 -0.3,0.3 -0.7,0.6 -1.2,0.7 -0.4,0.1 -0.9,0.2 -1.4,0.2 -0.7,0 -1.2,-0.1 -1.6,-0.3 -0.2,-0.1 -0.4,-0.2 -0.5,-0.4 -0.1,-0.1 -0.1,-0.3 -0.1,-0.5 0,-0.1 0,-0.2 0.1,-0.3 0,-0.1 0.1,-0.2 0.2,-0.2 0.1,0 0.1,-0.1 0.1,-0.1 0,0 0,-0.1 -0.1,-0.2 -0.2,-0.2 -0.3,-0.4 -0.3,-0.6 0,-0.1 0,-0.3 0.1,-0.4 0.2,-0.2 0.3,-0.3 0.5,-0.4 0,0 0.1,-0.1 0.1,-0.1 0,0 -0.1,-0.1 -0.2,-0.2 -0.3,-0.3 -0.4,-0.6 -0.4,-1 0,-0.2 0,-0.4 0.1,-0.6 0.1,-0.2 0.3,-0.3 0.5,-0.4 0.5,-0.4 1,-0.5 1.6,-0.5 0.2,0 0.5,0 0.8,0.1 0.3,0 0.5,0.1 0.6,0.1 0.3,0 0.6,-0.2 0.9,-0.4 0.1,-0.1 0.2,-0.1 0.2,-0.1zm-2.4 0.9c-0.2,0 -0.3,0.1 -0.4,0.2 -0.1,0.1 -0.1,0.3 -0.1,0.5 0,0.3 0,0.5 0.1,0.7 0.1,0.2 0.2,0.3 0.4,0.3 0.2,0 0.3,0 0.4,-0.2 0.1,-0.1 0.1,-0.2 0.1,-0.4 0,-0.4 0,-0.6 -0.1,-0.8 -0.1,-0.2 -0.3,-0.3 -0.4,-0.3zm-1 4.1c-0.1,0 -0.1,0.1 -0.1,0.2 0,0.1 0.1,0.3 0.2,0.4 0.2,0.1 0.5,0.2 0.8,0.2 0.3,0 0.5,-0.1 0.7,-0.2 0.2,0 0.2,-0.1 0.2,-0.3 0,-0.1 0,-0.1 -0.1,-0.2 0,0 -0.1,-0.1 -0.2,-0.1 0,0 -0.1,0 -0.2,0.1 -0.2,0 -0.4,0 -0.6,0 -0.1,0 -0.3,0 -0.4,0 -0.1,0 -0.2,0 -0.3,-0.1 0,0 0,0 0,0z"/>
    <path id="3" class="fil4" d="M23.2 6.8l-0.5 1.2c-0.1,0.2 -0.2,0.3 -0.2,0.4 -0.1,0.1 -0.2,0.1 -0.2,0.1 -0.1,0 -0.2,0 -0.2,-0.1 0,0 -0.1,-0.2 -0.2,-0.4 -0.1,-0.2 -0.2,-0.4 -0.3,-0.6l-0.6 -1.3c-0.1,-0.2 -0.2,-0.3 -0.3,-0.3 -0.1,0 -0.1,0.1 -0.1,0.2 -0.1,0.4 -0.1,0.7 -0.1,1 0,0.3 0,0.5 0.1,0.6 0,0.1 0,0.2 0.1,0.2 0,0 0.1,0.1 0.2,0.1 0.1,0.1 0.2,0.2 0.2,0.3 0,0.4 -0.4,0.5 -1.3,0.5 -0.7,0 -1.1,-0.1 -1.1,-0.5 0,-0.1 0,-0.1 0.1,-0.2 0,0 0.1,0 0.3,-0.1 0,-0.1 0.1,-0.1 0.2,-0.2 0,-0.1 0,-0.2 0,-0.5 0.1,-0.2 0.1,-0.6 0.1,-1.2 0,-0.5 0.1,-1 0.1,-1.4 0,-0.5 -0.1,-0.8 -0.2,-1 0,0 0,-0.1 -0.1,-0.1 0,0 -0.1,-0.1 -0.1,-0.1 -0.3,-0.1 -0.4,-0.2 -0.4,-0.4 0,-0.1 0.1,-0.2 0.1,-0.3 0.1,-0.1 0.2,-0.1 0.4,-0.2 0.1,0 0.3,-0.1 0.5,-0.1 0.2,0 0.4,0 0.6,0 0.3,0 0.6,0 0.8,0.1 0.1,0 0.1,0 0.2,0.1 0,0 0.1,0.1 0.2,0.3l0.9 1.7c0.1,0.2 0.2,0.3 0.2,0.4 0,0 0.1,0 0.2,0 0,0 0.1,0 0.1,0 0.1,-0.1 0.1,-0.2 0.2,-0.3l0.6 -1.2c0.1,-0.2 0.2,-0.3 0.2,-0.3 0.1,-0.3 0.3,-0.5 0.4,-0.6 0.2,-0.2 0.5,-0.2 1,-0.2 0.9,0 1.3,0.2 1.3,0.6 0,0 0,0.1 0,0.2 -0.1,0 -0.1,0.1 -0.2,0.2 -0.2,0.1 -0.3,0.2 -0.3,0.4 -0.1,0.4 -0.1,0.9 -0.1,1.5 0,0.8 0,1.5 0.1,2.1 0,0.1 0,0.2 0.1,0.2 0,0.1 0.1,0.2 0.3,0.3 0.1,0 0.1,0.1 0.1,0.3 0,0.2 -0.1,0.3 -0.4,0.4 -0.1,0.1 -0.3,0.1 -0.4,0.1 -0.2,0 -0.4,0 -0.8,0 -0.5,0 -0.9,0 -1.1,-0.1 -0.3,-0.1 -0.4,-0.2 -0.4,-0.4 0,-0.1 0,-0.1 0,-0.2 0.1,0 0.1,-0.1 0.3,-0.2 0.1,-0.1 0.1,-0.2 0.2,-0.4 0,-0.2 0,-0.5 0,-0.9 0,-0.3 0,-0.4 0,-0.5 -0.1,-0.1 -0.1,-0.1 -0.2,-0.1 -0.1,0 -0.1,0.1 -0.2,0.2 -0.1,0.1 -0.2,0.3 -0.4,0.7z"/>
    <path id="4" class="fil4" d="M29.5 4.1c0.5,0 1,0.2 1.3,0.4 0.2,0.2 0.4,0.3 0.4,0.5 0.1,0.2 0.2,0.4 0.2,0.8l-0.1 0.6c0,0.5 0.1,0.8 0.1,0.9 0.1,0.1 0.1,0.2 0.1,0.2 0.1,0 0.1,0 0.2,0 0.1,0 0.2,0.1 0.2,0.2 0,0.2 -0.1,0.3 -0.2,0.5 -0.1,0.1 -0.3,0.2 -0.4,0.4 -0.3,0.1 -0.5,0.2 -0.8,0.2 -0.3,0 -0.5,-0.2 -0.7,-0.4 -0.1,-0.1 -0.1,-0.1 -0.2,-0.1 0,0 -0.1,0 -0.2,0.1 -0.3,0.2 -0.7,0.4 -1,0.4 -0.4,0 -0.8,-0.1 -1,-0.3 -0.2,-0.1 -0.3,-0.3 -0.4,-0.4 -0.1,-0.2 -0.1,-0.4 -0.1,-0.6 0,-0.3 0.1,-0.6 0.4,-0.8 0.3,-0.4 0.9,-0.6 1.7,-0.6 0.2,0 0.3,0 0.4,-0.1 0,0 0,-0.1 0,-0.2 0,-0.3 0,-0.5 -0.1,-0.7 0,-0.1 -0.2,-0.2 -0.3,-0.2 -0.1,0 -0.2,0 -0.2,0.1 -0.1,0 -0.2,0.1 -0.3,0.3 -0.3,0.4 -0.6,0.5 -0.8,0.5 -0.2,0 -0.3,0 -0.4,-0.1 -0.1,-0.1 -0.1,-0.2 -0.1,-0.3 0,-0.2 0,-0.3 0.1,-0.5 0.1,-0.1 0.3,-0.2 0.5,-0.3 0.5,-0.3 1.1,-0.5 1.7,-0.5zm-0.3 2.6c-0.1,0 -0.2,0.1 -0.3,0.2 -0.1,0.1 -0.2,0.2 -0.2,0.4 0,0.1 0,0.3 0.1,0.3 0.1,0.1 0.2,0.2 0.3,0.2 0.2,0 0.3,-0.2 0.3,-0.6 0,-0.2 0,-0.3 0,-0.4 0,0 -0.1,-0.1 -0.2,-0.1z"/>
    <path id="5" class="fil4" d="M34.4 4.2c0.2,0 0.3,0 0.3,0 0.1,0 0.1,0.1 0.1,0.2 0,0.2 0,0.2 0.1,0.2 0,0 0.1,0 0.3,-0.2 0.1,-0.1 0.3,-0.1 0.5,-0.2 0.2,0 0.4,-0.1 0.5,-0.1 0.4,0 0.8,0.2 1.1,0.4 0.2,0.2 0.4,0.5 0.5,0.8 0.1,0.3 0.2,0.6 0.2,1 0,0.8 -0.3,1.4 -0.8,1.9 -0.4,0.4 -0.8,0.6 -1.3,0.6 -0.3,0 -0.5,-0.1 -0.8,-0.2 -0.1,-0.1 -0.1,-0.1 -0.1,-0.1 -0.1,0 -0.2,0.1 -0.2,0.3 0,0.2 0.1,0.4 0.3,0.5 0.1,0.1 0.2,0.2 0.2,0.2 0.1,0.1 0.1,0.1 0.1,0.2 0,0.2 -0.1,0.3 -0.3,0.4 -0.2,0.1 -0.5,0.2 -0.9,0.2 -0.6,0 -1.2,-0.2 -1.7,-0.4 -0.2,-0.2 -0.4,-0.3 -0.4,-0.5 0,-0.1 0,-0.2 0.1,-0.2 0,-0.1 0.1,-0.1 0.2,-0.2 0.2,0 0.3,-0.2 0.3,-0.4 0,-0.2 0,-0.7 0.1,-1.6 -0.1,-0.7 -0.1,-1.2 -0.1,-1.3 0,0 0,0 -0.1,0 0,0 -0.1,0 -0.2,-0.1 -0.1,0 -0.2,0 -0.2,-0.1 -0.1,-0.1 -0.1,-0.1 -0.1,-0.2 0,-0.2 0,-0.3 0.1,-0.4 0.1,-0.1 0.2,-0.1 0.4,-0.2 0.8,-0.4 1.3,-0.5 1.8,-0.5zm0.4 1.7l0 1.2c0,0.1 0,0.1 0,0.2 0,0 0,0.1 0.1,0.2 0.1,0 0.2,0.1 0.3,0.1 0.4,0 0.6,-0.4 0.6,-1.1 0,-0.4 -0.1,-0.7 -0.2,-0.9 -0.1,-0.1 -0.3,-0.2 -0.4,-0.2 -0.2,0 -0.4,0.2 -0.4,0.5z"/>
    <path class="fil4" d="M3.2 14.1c-0.1,0 -0.1,0 -0.1,0 -0.1,0.1 -0.1,0.2 -0.1,0.4 0,0.4 0,0.6 0.1,0.8 0,0 0,0.1 0,0.1 0.1,0 0.1,0.1 0.2,0.1 0.1,0.1 0.2,0.2 0.2,0.3 0,0.2 -0.1,0.3 -0.3,0.4 -0.2,0 -0.6,0.1 -1.1,0.1 -0.9,0 -1.3,-0.2 -1.3,-0.5 0,-0.1 0,-0.2 0,-0.2 0,0 0.1,-0.1 0.2,-0.1 0.1,-0.1 0.2,-0.2 0.2,-0.3 0,-0.1 0.1,-0.3 0.1,-0.5 0,-0.2 0,-0.8 0,-1.9 0,-0.3 0,-0.6 0,-0.7 -0.1,-0.1 -0.2,-0.2 -0.3,-0.3 -0.1,0 -0.2,-0.1 -0.2,-0.1 0,-0.1 0,-0.1 0,-0.2 0,-0.1 0,-0.2 0.1,-0.2 0,-0.1 0.1,-0.1 0.3,-0.2 0.1,0 0.2,0 0.4,0 0.1,0 0.3,0 0.6,0 0.1,0 0.2,0 0.3,0 0.2,0 0.5,0 0.9,0 0.2,0 0.4,0 0.5,0 0.5,0 1,0.1 1.3,0.3 0.3,0.3 0.5,0.6 0.5,1 0,0.2 -0.1,0.4 -0.2,0.6 -0.1,0.2 -0.2,0.4 -0.4,0.4 -0.1,0.1 -0.2,0.1 -0.2,0.2 0,0.1 0.1,0.1 0.2,0.2 0.3,0.1 0.5,0.2 0.6,0.4 0.1,0.2 0.2,0.5 0.3,0.9 0,0.1 0,0.2 0.1,0.3 0,0 0.1,0.1 0.3,0.1 0,0 0,0.1 0.1,0.1 0,0.1 0,0.1 0,0.2 0,0.1 0,0.1 -0.1,0.2 0,0.1 -0.1,0.2 -0.2,0.2 -0.2,0.1 -0.5,0.1 -0.9,0.1 -0.4,0 -0.8,-0.1 -1,-0.3 -0.1,-0.2 -0.2,-0.3 -0.2,-0.5 -0.1,-0.1 -0.2,-0.4 -0.3,-0.8 0,-0.2 -0.1,-0.4 -0.2,-0.5 -0.1,-0.1 -0.2,-0.1 -0.4,-0.1zm-0.2 -1.9l0 0.8c0,0 0,0 0,0.1 0,0.1 0,0.1 0,0.1 0,0.1 0.1,0.1 0.2,0.1 0.2,0 0.4,-0.1 0.5,-0.2 0.1,-0.1 0.1,-0.3 0.1,-0.5 0,-0.5 -0.2,-0.7 -0.5,-0.7 -0.1,0 -0.2,0 -0.2,0 -0.1,0.1 -0.1,0.1 -0.1,0.3z"/>
    <path id="1" class="fil4" d="M8.2 11.1l1.9 0c0.4,0 0.6,0 0.8,0 0.2,0 0.4,-0.1 0.5,-0.1 0.1,0 0.1,0 0.2,0 0.1,0 0.2,0 0.3,0.2 0.2,0.2 0.2,0.5 0.2,0.8 0,0.2 0,0.3 -0.1,0.4 0,0.1 -0.1,0.1 -0.2,0.1 -0.1,0 -0.2,0 -0.2,0 -0.1,-0.1 -0.1,-0.1 -0.2,-0.3 -0.1,-0.1 -0.3,-0.2 -0.4,-0.3 -0.2,0 -0.5,-0.1 -0.9,-0.1 -0.2,0 -0.4,0.1 -0.5,0.2 0,0 0,0.1 0,0.2 0,0.1 0,0.3 0,0.7 0,0.2 0,0.2 0,0.3 0.1,0 0.2,0 0.4,0 0.1,0 0.2,0 0.3,0 0,-0.1 0,-0.2 0,-0.3 0.1,-0.1 0.1,-0.2 0.1,-0.3 0,0 0,-0.1 0.1,-0.1 0,0 0.1,-0.1 0.2,-0.1 0.1,0 0.2,0.1 0.2,0.2 0.1,0.1 0.1,0.2 0.2,0.4 0,0.1 0,0.3 0,0.5 0,0.4 0,0.7 -0.2,1 0,0.1 -0.1,0.2 -0.3,0.2 0,0 -0.1,0 -0.1,-0.1 -0.1,0 -0.1,-0.1 -0.1,-0.2 0,-0.3 -0.2,-0.5 -0.5,-0.5 -0.1,0 -0.2,0.1 -0.2,0.2 -0.1,0 -0.1,0.2 -0.1,0.3 0,0.2 0,0.3 0,0.5 0,0.2 0.1,0.3 0.1,0.4 0,0 0.1,0.1 0.2,0.1 0.1,0 0.2,0.1 0.5,0.1 0.4,0 0.6,-0.1 0.8,-0.2 0.2,-0.1 0.4,-0.2 0.5,-0.5 0.1,-0.1 0.1,-0.2 0.2,-0.3 0,0 0.1,-0.1 0.2,-0.1 0.1,0 0.2,0.1 0.2,0.2 0.1,0.1 0.2,0.2 0.2,0.3 0,0.2 -0.1,0.3 -0.2,0.6 0,0.2 -0.1,0.4 -0.2,0.6 -0.1,0 -0.2,0.1 -0.2,0.1 0,0.1 -0.1,0.1 -0.1,0.1 -0.1,0 -0.1,0 -0.2,0 -0.2,-0.1 -0.4,-0.1 -0.7,-0.1l-3.1 0c-0.2,0 -0.3,0 -0.3,-0.1 -0.1,0 -0.1,-0.1 -0.1,-0.2 0,-0.1 0,-0.1 0,-0.2 0,0 0.1,-0.1 0.2,-0.1 0.1,0 0.2,-0.1 0.2,-0.1 0,-0.1 0.1,-0.1 0.1,-0.2 0.1,-0.4 0.1,-0.9 0.1,-1.5 0,-1 -0.1,-1.6 -0.2,-1.9 0,0 0,0 -0.1,-0.1 0,0 -0.1,0 -0.1,0 -0.2,-0.1 -0.3,-0.2 -0.3,-0.3 0,-0.1 0.1,-0.2 0.1,-0.2 0.1,-0.1 0.1,-0.1 0.2,-0.1 0.1,-0.1 0.3,-0.1 0.6,-0.1z"/>
    <path id="2" class="fil4" d="M15.3 16.2l-0.5 0c-0.3,0 -0.6,0 -0.7,0 -0.2,0 -0.3,0 -0.3,0 -0.2,0 -0.3,0 -0.4,-0.1 -0.1,-0.1 -0.1,-0.1 -0.1,-0.3 0,0 0,-0.1 0,-0.1 0.1,-0.1 0.1,-0.1 0.3,-0.2 0,-0.1 0.1,-0.1 0.1,-0.2 0,-0.1 0.1,-0.4 0.1,-0.7 0,-0.6 0.1,-1.2 0.1,-2 0,-0.3 -0.1,-0.5 -0.1,-0.6 0,-0.1 -0.1,-0.2 -0.3,-0.2 -0.1,-0.1 -0.2,-0.2 -0.2,-0.3 0,-0.1 0,-0.2 0.1,-0.3 0.1,-0.1 0.3,-0.1 0.4,-0.1 0.1,0 0.2,0 0.3,0 0.3,0 0.5,0 0.7,0 0.2,0 0.6,0 1.1,0 0.2,0 0.4,0 0.5,0 0.3,0 0.6,0 0.8,0.1 0.2,0 0.4,0.1 0.5,0.2 0.3,0.2 0.4,0.5 0.4,0.9 0,0.1 0,0.3 -0.1,0.5 -0.1,0.1 -0.2,0.3 -0.3,0.4 -0.1,0 -0.1,0.1 -0.1,0.1 0,0.1 0,0.2 0.1,0.2 0.2,0.1 0.4,0.2 0.6,0.4 0.2,0.2 0.2,0.5 0.2,0.8 0,0.3 -0.1,0.7 -0.4,1 -0.3,0.3 -0.8,0.5 -1.5,0.5 -0.1,0 -0.3,0 -0.7,0 -0.3,0 -0.5,0 -0.6,0zm0.3 -4l0 0.7c0,0.1 0,0.2 0,0.3 0.1,0 0.1,0.1 0.2,0.1 0.2,0 0.3,-0.1 0.4,-0.2 0.1,-0.1 0.1,-0.3 0.1,-0.5 0,-0.3 0,-0.5 -0.1,-0.6 -0.1,-0.1 -0.2,-0.2 -0.4,-0.2 -0.1,0 -0.1,0 -0.2,0.1 0,0 0,0.1 0,0.3zm0 2.1l0 0.4c0,0.3 0,0.5 0.1,0.6 0,0.1 0.1,0.2 0.3,0.2 0.3,0 0.5,-0.3 0.5,-0.7 0,-0.6 -0.2,-0.8 -0.6,-0.8 -0.1,0 -0.2,0 -0.2,0 -0.1,0.1 -0.1,0.2 -0.1,0.3z"/>
    <path id="3" class="fil4" d="M27.6 14.1c-0.1,0 -0.1,0 -0.2,0 0,0.1 0,0.2 0,0.4 0,0.4 0,0.6 0,0.8 0.1,0 0.1,0.1 0.1,0.1 0,0 0.1,0.1 0.1,0.1 0.2,0.1 0.3,0.2 0.3,0.3 0,0.2 -0.1,0.3 -0.3,0.4 -0.3,0 -0.6,0.1 -1.1,0.1 -0.9,0 -1.4,-0.2 -1.4,-0.5 0,-0.1 0,-0.2 0.1,-0.2 0,0 0.1,-0.1 0.2,-0.1 0.1,-0.1 0.1,-0.2 0.2,-0.3 0,-0.1 0,-0.3 0.1,-0.5 0,-0.2 0,-0.8 0,-1.9 0,-0.3 0,-0.6 -0.1,-0.7 0,-0.1 -0.1,-0.2 -0.2,-0.3 -0.1,0 -0.2,-0.1 -0.2,-0.1 -0.1,-0.1 -0.1,-0.1 -0.1,-0.2 0,-0.1 0.1,-0.2 0.1,-0.2 0.1,-0.1 0.2,-0.1 0.3,-0.2 0.1,0 0.3,0 0.5,0 0,0 0.3,0 0.6,0 0,0 0.1,0 0.3,0 0.2,0 0.5,0 0.9,0 0.2,0 0.4,0 0.5,0 0.5,0 0.9,0.1 1.3,0.3 0.3,0.3 0.4,0.6 0.4,1 0,0.2 0,0.4 -0.1,0.6 -0.1,0.2 -0.3,0.4 -0.5,0.4 0,0.1 -0.1,0.1 -0.1,0.2 0,0.1 0.1,0.1 0.2,0.2 0.3,0.1 0.4,0.2 0.6,0.4 0.1,0.2 0.2,0.5 0.2,0.9 0.1,0.1 0.1,0.2 0.1,0.3 0.1,0 0.2,0.1 0.3,0.1 0.1,0 0.1,0.1 0.1,0.1 0.1,0.1 0.1,0.1 0.1,0.2 0,0.1 0,0.1 -0.1,0.2 -0.1,0.1 -0.1,0.2 -0.2,0.2 -0.2,0.1 -0.5,0.1 -0.9,0.1 -0.5,0 -0.8,-0.1 -1,-0.3 -0.1,-0.2 -0.2,-0.3 -0.3,-0.5 0,-0.1 -0.1,-0.4 -0.2,-0.8 -0.1,-0.2 -0.1,-0.4 -0.2,-0.5 -0.1,-0.1 -0.2,-0.1 -0.4,-0.1zm-0.2 -1.9l-0.1 0.8c0,0 0,0 0,0.1 0,0.1 0.1,0.1 0.1,0.1 0,0.1 0.1,0.1 0.1,0.1 0.3,0 0.4,-0.1 0.5,-0.2 0.1,-0.1 0.2,-0.3 0.2,-0.5 0,-0.5 -0.2,-0.7 -0.5,-0.7 -0.1,0 -0.2,0 -0.2,0 -0.1,0.1 -0.1,0.1 -0.1,0.3z"/>
    <path id="4" class="fil4" d="M33.8 11.3l1.9 1.6c0.1,0.2 0.3,0.2 0.3,0.2 0.2,0 0.2,-0.1 0.2,-0.4 0,-0.3 0,-0.5 0,-0.6 -0.1,-0.1 -0.1,-0.2 -0.3,-0.3 -0.1,0 -0.1,-0.1 -0.2,-0.1 0,-0.1 0,-0.1 0,-0.2 0,-0.2 0.1,-0.4 0.4,-0.4 0.1,0 0.3,-0.1 0.6,-0.1 0.4,0 0.6,0.1 0.8,0.1 0.2,0.1 0.3,0.2 0.3,0.4 0,0.2 -0.1,0.3 -0.3,0.4 0,0 -0.1,0 -0.1,0.1 0,0 -0.1,0 -0.1,0.1 0,0.1 -0.1,0.4 -0.1,0.9l0 1.2c0,0.2 0,0.4 0,0.8 0,0.4 0,0.7 -0.1,0.9 0,0.3 -0.1,0.4 -0.3,0.4 -0.1,0 -0.2,0 -0.2,-0.1 -0.1,0 -0.2,-0.1 -0.3,-0.2l-2.2 -2c-0.2,-0.1 -0.3,-0.2 -0.4,-0.2 -0.1,0 -0.2,0.2 -0.2,0.6 0,0.4 0,0.6 0,0.8 0.1,0.1 0.2,0.2 0.3,0.2 0.1,0.1 0.2,0.2 0.2,0.4 0,0.3 -0.3,0.5 -1.1,0.5 -0.3,0 -0.6,-0.1 -0.8,-0.2 -0.1,0 -0.2,-0.2 -0.2,-0.3 0,-0.1 0,-0.2 0,-0.2 0,-0.1 0.1,-0.1 0.2,-0.2 0.2,-0.1 0.2,-0.2 0.3,-0.4 0,-0.3 0,-0.7 0,-1.3 0,-0.7 0,-1.1 -0.1,-1.4 0,-0.1 0,-0.2 -0.1,-0.3 0,0 -0.1,-0.1 -0.2,-0.1 -0.1,-0.1 -0.2,-0.1 -0.2,-0.2 -0.1,0 -0.1,-0.1 -0.1,-0.2 0,-0.2 0.2,-0.4 0.6,-0.4 0.2,0 0.4,-0.1 0.7,-0.1 0.2,0 0.4,0.1 0.5,0.1 0.1,0 0.2,0.1 0.3,0.2z"/>
    <path id="svg_2_0" class="fil5" d="M22 17.2c-0.2,-0.9 -0.5,-1.7 -0.9,-2.4 -0.3,-0.5 -0.7,-1 -1,-1.5 -0.1,-0.1 -0.2,-0.3 -0.3,-0.5 -0.2,-0.3 -0.3,-0.7 -0.3,-1.3 0,-0.5 0.1,-0.9 0.3,-1.2 0.4,-0.6 1,-1 1.8,-1.1 0.6,-0.1 1.2,0 1.7,0.3 0.3,0.2 0.6,0.5 0.8,0.8 0.2,0.3 0.4,0.7 0.4,1.2 0,0.3 -0.1,0.5 -0.1,0.8 -0.1,0.2 -0.2,0.3 -0.3,0.5 -0.2,0.4 -0.4,0.7 -0.6,1 -0.6,1 -1.3,2 -1.5,3.4l0 0z"/>
    <circle id="svg_4_1" class="fil6" cx="22" cy="11.5" r="0.9"/>
   </g>
   <g>
    <path class="fil3" d="M61.4 6.1c-0.8,-1.3 -1.8,-2.3 -3.1,-3 -1.3,-0.8 -2.7,-1.2 -4.3,-1.2 -1.5,0 -2.9,0.4 -4.2,1.2 -1.3,0.7 -2.3,1.7 -3.1,3 -0.7,1.3 -1.1,2.7 -1.1,4.3 0,1.8 0.5,3.5 1.6,4.9 1.1,1.5 2.5,2.5 4.2,3.1 0.2,0 0.3,0 0.4,-0.1 0.1,-0.1 0.2,-0.2 0.2,-0.3 0,-0.1 0,-0.3 0,-0.6 -0.1,-0.4 -0.1,-0.7 -0.1,-1l-0.2 0c-0.2,0.1 -0.4,0.1 -0.6,0.1 -0.3,0 -0.5,-0.1 -0.8,-0.1 -0.2,0 -0.5,-0.2 -0.7,-0.3 -0.2,-0.2 -0.4,-0.4 -0.5,-0.7l-0.1 -0.3c-0.1,-0.1 -0.2,-0.3 -0.4,-0.5 -0.1,-0.2 -0.3,-0.4 -0.4,-0.4l-0.1 -0.1c-0.1,0 -0.1,-0.1 -0.2,-0.1 0,-0.1 0,-0.1 -0.1,-0.2 0,0 0,-0.1 0.1,-0.1 0.1,0 0.2,-0.1 0.3,-0.1l0.2 0.1c0.2,0 0.4,0.1 0.6,0.2 0.2,0.2 0.4,0.4 0.5,0.6 0.2,0.3 0.4,0.5 0.6,0.7 0.3,0.2 0.5,0.2 0.7,0.2 0.3,0 0.5,0 0.7,0 0.2,-0.1 0.3,-0.1 0.5,-0.2 0,-0.5 0.2,-0.8 0.5,-1.1 -0.4,-0.1 -0.8,-0.1 -1.1,-0.2 -0.4,-0.1 -0.7,-0.2 -1.1,-0.4 -0.3,-0.2 -0.6,-0.5 -0.8,-0.8 -0.3,-0.3 -0.5,-0.7 -0.6,-1.1 -0.2,-0.5 -0.2,-1.1 -0.2,-1.7 0,-0.9 0.3,-1.6 0.8,-2.2 -0.2,-0.7 -0.2,-1.5 0.1,-2.3 0.2,-0.1 0.5,0 1,0.2 0.4,0.1 0.7,0.3 0.9,0.4 0.2,0.1 0.3,0.2 0.4,0.3 0.7,-0.2 1.4,-0.3 2.1,-0.3 0.8,0 1.5,0.1 2.2,0.3l0.4 -0.3c0.3,-0.2 0.6,-0.3 1,-0.5 0.4,-0.1 0.7,-0.2 0.9,-0.1 0.3,0.8 0.3,1.6 0.1,2.3 0.5,0.6 0.8,1.3 0.8,2.2 0,0.6 0,1.2 -0.2,1.7 -0.1,0.5 -0.3,0.8 -0.6,1.1 -0.2,0.3 -0.5,0.6 -0.9,0.8 -0.3,0.2 -0.7,0.3 -1,0.4 -0.3,0.1 -0.7,0.1 -1.1,0.2 0.4,0.3 0.5,0.8 0.5,1.5l0 2.4c0,0.1 0.1,0.2 0.2,0.3 0.1,0.1 0.2,0.1 0.4,0.1 1.7,-0.6 3.1,-1.6 4.2,-3.1 1.1,-1.4 1.6,-3.1 1.6,-4.9 0,-1.6 -0.4,-3 -1.1,-4.3z"/>
    <path class="fil7" d="M61 5.8c-0.7,-1.3 -1.7,-2.4 -3,-3.1 -1.3,-0.8 -2.7,-1.1 -4.3,-1.1 -1.5,0 -2.9,0.3 -4.2,1.1 -1.3,0.7 -2.3,1.8 -3.1,3.1 -0.7,1.3 -1.1,2.7 -1.1,4.2 0,1.8 0.5,3.5 1.6,5 1.1,1.4 2.5,2.4 4.2,3 0.2,0 0.3,0 0.4,-0.1 0.1,-0.1 0.1,-0.2 0.1,-0.3 0,0 0,-0.2 0,-0.6 0,-0.4 0,-0.7 0,-1l-0.2 0.1c-0.2,0 -0.4,0 -0.6,0 -0.3,0 -0.5,0 -0.8,-0.1 -0.3,0 -0.5,-0.1 -0.7,-0.3 -0.3,-0.2 -0.4,-0.4 -0.5,-0.7l-0.1 -0.2c-0.1,-0.2 -0.2,-0.4 -0.4,-0.6 -0.1,-0.2 -0.3,-0.3 -0.5,-0.4l0 -0.1c-0.1,0 -0.1,0 -0.2,-0.1 0,0 0,-0.1 -0.1,-0.1 0,-0.1 0,-0.1 0.1,-0.2 0,0 0.1,0 0.3,0l0.2 0c0.2,0 0.4,0.1 0.6,0.3 0.2,0.1 0.4,0.3 0.5,0.6 0.2,0.3 0.4,0.5 0.6,0.6 0.2,0.2 0.5,0.3 0.7,0.3 0.3,0 0.5,0 0.7,-0.1 0.1,0 0.3,-0.1 0.5,-0.1 0,-0.5 0.2,-0.9 0.5,-1.2 -0.4,0 -0.8,-0.1 -1.1,-0.2 -0.4,-0.1 -0.7,-0.2 -1.1,-0.4 -0.3,-0.2 -0.6,-0.4 -0.9,-0.7 -0.2,-0.3 -0.4,-0.7 -0.5,-1.2 -0.2,-0.5 -0.3,-1 -0.3,-1.6 0,-0.9 0.3,-1.7 0.9,-2.3 -0.3,-0.7 -0.2,-1.4 0.1,-2.2 0.2,-0.1 0.5,-0.1 0.9,0.1 0.5,0.2 0.8,0.3 1,0.4 0.1,0.1 0.3,0.2 0.4,0.3 0.7,-0.2 1.4,-0.3 2.1,-0.3 0.8,0 1.5,0.1 2.1,0.3l0.5 -0.2c0.2,-0.2 0.6,-0.4 1,-0.5 0.4,-0.2 0.7,-0.2 0.9,-0.1 0.3,0.8 0.3,1.5 0,2.2 0.6,0.6 0.9,1.4 0.9,2.3 0,0.6 -0.1,1.1 -0.2,1.6 -0.2,0.5 -0.4,0.9 -0.6,1.2 -0.2,0.3 -0.5,0.5 -0.9,0.7 -0.3,0.2 -0.7,0.3 -1,0.4 -0.3,0.1 -0.7,0.2 -1.1,0.2 0.3,0.4 0.5,0.9 0.5,1.6l0 2.3c0,0.1 0.1,0.2 0.2,0.3 0.1,0.1 0.2,0.1 0.4,0.1 1.7,-0.6 3.1,-1.6 4.2,-3 1,-1.5 1.6,-3.2 1.6,-5 0,-1.5 -0.4,-2.9 -1.2,-4.2z"/>
   </g>
   <path class="fil8" d="M40.6 9.5c0.1,0 0.3,0.1 0.4,0.2 0.1,0 0.2,0.1 0.2,0.2 0.1,0.1 0.1,0.2 0.1,0.4 0,0.1 0,0.3 -0.1,0.4 -0.1,0.1 -0.2,0.2 -0.4,0.2 -0.1,0 -0.2,0.1 -0.3,0.1 -0.1,0 -0.2,-0.1 -0.3,-0.1 -0.1,-0.1 -0.2,-0.2 -0.3,-0.3 -0.1,-0.1 -0.1,-0.2 -0.1,-0.4 0,-0.1 0.1,-0.3 0.1,-0.4 0.1,-0.1 0.2,-0.2 0.4,-0.2 0.1,-0.1 0.2,-0.1 0.3,-0.1zm-0.1 0.3c-0.1,0 -0.1,0 -0.2,0.1 0,0 0,0.1 0,0.1 0,0.1 0,0.2 0.1,0.3 0,0.1 0,0.2 0.1,0.2 0,0.1 0,0.1 0,0.1 0.1,0 0.1,0.1 0.1,0.1 0.1,0 0.1,-0.1 0.2,-0.1 0,0 0,-0.1 0,-0.2 0,0 0,-0.1 0,-0.2 -0.1,-0.1 -0.1,-0.2 -0.1,-0.3 -0.1,0 -0.1,0 -0.1,-0.1 -0.1,0 -0.1,0 -0.1,0z"/>
   <path id="1" class="fil8" d="M42 9.6l0.5 0.4c0,0.1 0,0.1 0.1,0.1 0,0 0,0 0,-0.1 0,-0.1 0,-0.2 0,-0.2 0,0 0,0 -0.1,-0.1 0,0 0,0 0,0 0,0 0,0 0,-0.1 0,0 0,0 0.1,-0.1 0,0 0.1,0 0.2,0 0.1,0 0.1,0 0.2,0 0,0.1 0.1,0.1 0.1,0.2 0,0 -0.1,0 -0.1,0.1 0,0 -0.1,0 -0.1,0 0,0 0,0 0,0 0,0 0,0.1 0,0.3l0 0.3c0,0 0,0.1 0,0.2 0,0.1 0,0.2 0,0.2 0,0.1 -0.1,0.1 -0.1,0.1 0,0 -0.1,0 -0.1,0 0,0 0,0 -0.1,0l-0.6 -0.6c0,0 0,0 -0.1,0 0,0 0,0 0,0.2 0,0 0,0.1 0,0.1 0,0.1 0,0.1 0.1,0.1 0,0 0,0.1 0,0.1 0,0.1 -0.1,0.1 -0.3,0.1 -0.1,0 -0.1,0 -0.2,0 0,0 -0.1,0 -0.1,-0.1 0,0 0,0 0.1,0 0,-0.1 0,-0.1 0,-0.1 0,0 0.1,0 0.1,-0.1 0,-0.1 0,-0.2 0,-0.4 0,-0.1 0,-0.3 0,-0.3 0,-0.1 -0.1,-0.1 -0.1,-0.1 0,0 0,0 0,0 -0.1,-0.1 -0.1,-0.1 -0.1,-0.1 0,0 0,0 0,0 0,-0.1 0,-0.1 0.2,-0.2 0,0 0.1,0 0.2,0 0,0 0.1,0 0.1,0 0,0 0,0.1 0.1,0.1z"/>
  </g>
 </g>
</svg>
